<?xml version="1.0" standalone="no"?><!DOCTYPE svg PUBLIC "-//W3C//DTD SVG 1.1//EN" "http://www.w3.org/Graphics/SVG/1.1/DTD/svg11.dtd"><svg xmlns="http://www.w3.org/2000/svg" version="1.1" width="704.786" height="608.868" xmlns:xlink="http://www.w3.org/1999/xlink" xlink="http://www.w3.org/1999/xlink" style="position:relative;overflow:hidden;" viewBox="-12 233.791 704.786 608.868"><defs/><g><g width="227.373" height="192.941" transform="scale(1,1) translate(102.733,292.085)"><g transform="scale(1,1) translate(0,0)" fill="#FFFFFF" stroke="#000000" stroke-opacity="1" fill-opacity="1"><path d="M227.373,0 L227.373,192.941 L0,192.941 L0,0 L227.373,0 z" stroke-width="11.339" stroke-dasharray="none"/></g><g fill="#0000FF" stroke="#9999FF" stroke-opacity="1" transform="scale(1,1) translate(0,0)"><path fill="none" stroke-width="0" stroke-dasharray="none" d="M0,0"/></g><g width="68.69881439208984" height="15.624999046325684" transform="scale(1,1) translate(79.337,88.658)"><text width="68.69881439208984" height="15.624999046325684" transform="scale(1,1) translate(0,0)" xml:space="preserve"><tspan xml:space="preserve" text-rendering="optimizeSpeed" font-size="13.88888888888889" font-weight="normal" font-style="normal" text-decoration="none" fill="#000" opacity="1" x="0" text-anchor="start" y="12.5" textLength="68.69881439208984" style="font-family: Arial, Helvetica Neue, Helvetica, sans-serif;">2.31 x 2.74</tspan></text></g><g transform="scale(1,1) translate(0,0)" fill="black" opacity="0"><path d="M75.431,92.564 L75.431,100.377 L67.618,96.471 L75.431,92.564 z"/></g><g transform="scale(1,1) translate(0,0)" fill="black" opacity="0"><path d="M151.942,92.564 L151.942,100.377 L159.755,96.471 L151.942,92.564 z"/></g><g transform="scale(1,1) translate(0,0)" fill="black" opacity="0"><path d="M109.78,84.752 L117.593,84.752 L113.686,76.939 L109.78,84.752 z"/></g><g transform="scale(1,1) translate(0,0)" fill="black" opacity="0"><path d="M109.78,108.189 L117.593,108.189 L113.686,116.002 L109.78,108.189 z"/></g><g fill="#9999FF" stroke="#9999FF" stroke-opacity="1" opacity="0" transform="scale(1,1) translate(0,0)"><path fill="none" stroke-width="1" stroke-dasharray="none" d="M236.042,5.669 L265.855,5.669 L265.855,79.96 M265.855,112.981 L265.855,187.272 L236.042,187.272 M221.703,201.611 L221.703,231.423 L130.197,231.423 M97.176,231.423 L5.669,231.423 L5.669,201.611 M-8.669,187.272 L-38.482,187.272 L-38.482,112.981 M-38.482,79.96 L-38.482,5.669 L-8.669,5.669 M5.669,-8.669 L5.669,-38.482 L97.176,-38.482 M130.197,-38.482 L221.703,-38.482 L221.703,-8.669"/><g><g stroke-dasharray="none"><path d="M235.042,4.669L237.042,4.669L237.042,6.669L235.042,6.669z" stroke-width="0" fill="none"/></g></g></g><g width="27.021263122558594" height="15.624999046325684" transform="rotate(270,258.042,109.981) scale(1,1) translate(258.042,109.981)" opacity="0"><text width="27.021263122558594" height="15.624999046325684" transform="scale(1,1) translate(0,0)" xml:space="preserve"><tspan xml:space="preserve" text-rendering="optimizeSpeed" font-size="13.88888888888889" font-weight="normal" font-style="normal" text-decoration="none" fill="#000" opacity="1" x="0" text-anchor="start" y="12.5" textLength="27.021263122558594" style="font-family: Arial, Helvetica Neue, Helvetica, sans-serif;">2.31</tspan></text></g><g width="27.021263122558594" height="15.624999046325684" transform="rotate(360,100.176,223.611) scale(1,1) translate(100.176,223.611)" opacity="0"><text width="27.021263122558594" height="15.624999046325684" transform="scale(1,1) translate(0,0)" xml:space="preserve"><tspan xml:space="preserve" text-rendering="optimizeSpeed" font-size="13.88888888888889" font-weight="normal" font-style="normal" text-decoration="none" fill="#000" opacity="1" x="0" text-anchor="start" y="12.5" textLength="27.021263122558594" style="font-family: Arial, Helvetica Neue, Helvetica, sans-serif;">2.74</tspan></text></g><g width="27.021263122558594" height="15.624999046325684" transform="rotate(270,-46.294,109.981) scale(1,1) translate(-46.294,109.981)" opacity="0"><text width="27.021263122558594" height="15.624999046325684" transform="scale(1,1) translate(0,0)" xml:space="preserve"><tspan xml:space="preserve" text-rendering="optimizeSpeed" font-size="13.88888888888889" font-weight="normal" font-style="normal" text-decoration="none" fill="#000" opacity="1" x="0" text-anchor="start" y="12.5" textLength="27.021263122558594" style="font-family: Arial, Helvetica Neue, Helvetica, sans-serif;">2.31</tspan></text></g><g width="27.021263122558594" height="15.624999046325684" transform="scale(1,1) translate(100.176,-46.294)" opacity="0"><text width="27.021263122558594" height="15.624999046325684" transform="scale(1,1) translate(0,0)" xml:space="preserve"><tspan xml:space="preserve" text-rendering="optimizeSpeed" font-size="13.88888888888889" font-weight="normal" font-style="normal" text-decoration="none" fill="#000" opacity="1" x="0" text-anchor="start" y="12.5" textLength="27.021263122558594" style="font-family: Arial, Helvetica Neue, Helvetica, sans-serif;">2.74</tspan></text></g><g width="27.021263122558594" height="15.624999046325684" transform="rotate(360,17.298,-26.294) scale(1,1) translate(17.298,-26.294)" opacity="0"><text width="27.021263122558594" height="15.624999046325684" transform="scale(1,1) translate(0,0)" xml:space="preserve"><tspan xml:space="preserve" text-rendering="optimizeSpeed" font-size="13.88888888888889" font-weight="normal" font-style="normal" text-decoration="none" fill="#000" opacity="1" x="0" text-anchor="start" y="12.5" textLength="27.021263122558594" style="font-family: Arial, Helvetica Neue, Helvetica, sans-serif;">0.64</tspan></text></g><g transform="scale(1,1) translate(0,0)" fill="black" opacity="0"><path d="M13.392,-22.388 L13.392,-14.576 L5.579,-18.482 L13.392,-22.388 z"/></g><g transform="scale(1,1) translate(0,0)" fill="black" opacity="0"><path d="M48.225,-22.388 L48.225,-14.576 L56.038,-18.482 L48.225,-22.388 z"/></g><g width="27.021263122558594" height="15.624999046325684" transform="scale(1,1) translate(161.315,-26.294)" opacity="0"><text width="27.021263122558594" height="15.624999046325684" transform="scale(1,1) translate(0,0)" xml:space="preserve"><tspan xml:space="preserve" text-rendering="optimizeSpeed" font-size="13.88888888888889" font-weight="normal" font-style="normal" text-decoration="none" fill="#000" opacity="1" x="0" text-anchor="start" y="12.5" textLength="27.021263122558594" style="font-family: Arial, Helvetica Neue, Helvetica, sans-serif;">1.19</tspan></text></g><g transform="scale(1,1) translate(0,0)" fill="black" opacity="0"><path d="M157.409,-22.388 L157.409,-14.576 L149.596,-18.482 L157.409,-22.388 z"/></g><g transform="scale(1,1) translate(0,0)" fill="black" opacity="0"><path d="M192.242,-22.388 L192.242,-14.576 L200.055,-18.482 L192.242,-22.388 z"/></g></g><g width="56" height="56" transform="rotate(180,301.479,464.066) scale(1,1) translate(273.479,436.066)"><g width="56" height="56"><g transform="scale(0.9545396951328853,0.9783194230475711) translate(0,0)"><g><g width="56.667" height="43.908" transform="scale(1,1) translate(0.5,12.833)"><g transform="scale(1,1) translate(0,0)" fill="#000000" stroke="#000000" stroke-opacity="1"><path d="M56.667,0 L56.667,0 L56.536,2.235 L56.311,4.344 L56.004,6.345 L55.627,8.25 L55.186,10.072 L54.687,11.816 L54.137,13.492 L53.538,15.102 L52.894,16.654 L52.209,18.149 L51.484,19.592 L50.721,20.984 L49.923,22.329 L49.09,23.629 L48.225,24.884 L47.328,26.097 L46.4,27.269 L45.441,28.4 L44.453,29.492 L43.437,30.546 L42.391,31.562 L41.318,32.54 L40.217,33.481 L39.088,34.385 L37.932,35.252 L36.748,36.083 L35.536,36.877 L34.296,37.633 L33.028,38.352 L31.732,39.033 L30.407,39.676 L29.053,40.279 L27.668,40.842 L26.252,41.364 L24.805,41.843 L23.324,42.278 L21.81,42.668 L20.259,43.01 L18.671,43.302 L17.044,43.541 L15.374,43.725 L13.66,43.849 L11.898,43.908 L10.083,43.898 L8.212,43.812 L6.276,43.641 L4.27,43.375 L2.182,43 L0,42.5 L0,42.5 L0,0.5" fill="none" stroke-width="1" stroke-dasharray="none"/><g><g stroke-dasharray="none"><path d="M55.667,-1L57.667,-1L57.667,1L55.667,1z" stroke-width="0" fill="none"/></g></g></g></g><g width="57" height="14" transform="scale(1,1) translate(0.667,0)"><g stroke="#BFBFBF" opacity="1" stroke-width="0" stroke-dasharray="none" width="57" height="14" transform="scale(1,1) translate(0,0)" fill="#FFFFFF" fill-opacity="1" stroke-opacity="1"><rect width="57" height="14"/></g></g></g></g></g><g fill="#9999FF" stroke="#9999FF" stroke-opacity="1" opacity="0" transform="scale(1,1) translate(0,0)"><path fill="none" stroke-width="1" stroke-dasharray="none" d="M0,0"/></g><g width="27.021263122558594" height="15.624999046325684" transform="rotate(180,41.511,-6) scale(1,1) translate(41.511,-6)" opacity="0"><text width="27.021263122558594" height="15.624999046325684" transform="scale(1,1) translate(0,0)" xml:space="preserve"><tspan xml:space="preserve" text-rendering="optimizeSpeed" font-size="13.88888888888889" font-weight="normal" font-style="normal" text-decoration="none" fill="#000" opacity="1" x="0" text-anchor="start" y="12.5" textLength="27.021263122558594" style="font-family: Arial, Helvetica Neue, Helvetica, sans-serif;">0.71</tspan></text></g><g transform="scale(1,1) translate(0,0)" fill="black" opacity="0"><path d="M10.583,-17.719 L10.583,-9.906 L2.771,-13.812 L10.583,-17.719 z"/></g><g transform="scale(1,1) translate(0,0)" fill="black" opacity="0"><path d="M45.417,-17.719 L45.417,-9.906 L53.229,-13.812 L45.417,-17.719 z"/></g><g width="27.021263122558594" height="15.624999046325684" transform="rotate(90,77.625,14.489) scale(1,1) translate(77.625,14.489)" opacity="0"><text width="27.021263122558594" height="15.624999046325684" transform="scale(1,1) translate(0,0)" xml:space="preserve"><tspan xml:space="preserve" text-rendering="optimizeSpeed" font-size="13.88888888888889" font-weight="normal" font-style="normal" text-decoration="none" fill="#000" opacity="1" x="0" text-anchor="start" y="12.5" textLength="27.021263122558594" style="font-family: Arial, Helvetica Neue, Helvetica, sans-serif;">0.71</tspan></text></g><g transform="scale(1,1) translate(0,0)" fill="black" opacity="0"><path d="M73.719,10.583 L65.906,10.583 L69.812,2.771 L73.719,10.583 z"/></g><g transform="scale(1,1) translate(0,0)" fill="black" opacity="0"><path d="M73.719,45.417 L65.906,45.417 L69.812,53.229 L73.719,45.417 z"/></g></g><g width="155.339" height="251.339" transform="scale(1,1) translate(330.177,292.085)"><g transform="scale(1,1) translate(0,0)" fill="#FFFFFF" stroke="#000000" stroke-opacity="1" fill-opacity="1"><path d="M155.339,0 L155.339,251.339 L0,251.339 L0,0 L155.339,0 z" stroke-width="11.339" stroke-dasharray="none"/></g><g fill="#0000FF" stroke="#9999FF" stroke-opacity="1" transform="scale(1,1) translate(0,0)"><path fill="none" stroke-width="0" stroke-dasharray="none" d="M0,0"/></g><g width="68.69881439208984" height="15.624999046325684" transform="scale(1,1) translate(43.32,117.857)"><text width="68.69881439208984" height="15.624999046325684" transform="scale(1,1) translate(0,0)" xml:space="preserve"><tspan xml:space="preserve" text-rendering="optimizeSpeed" font-size="13.88888888888889" font-weight="normal" font-style="normal" text-decoration="none" fill="#000" opacity="1" x="0" text-anchor="start" y="12.5" textLength="68.69881439208984" style="font-family: Arial, Helvetica Neue, Helvetica, sans-serif;">3.05 x 1.83</tspan></text></g><g transform="scale(1,1) translate(0,0)" fill="black" opacity="0"><path d="M39.414,121.763 L39.414,129.576 L31.601,125.669 L39.414,121.763 z"/></g><g transform="scale(1,1) translate(0,0)" fill="black" opacity="0"><path d="M115.925,121.763 L115.925,129.576 L123.737,125.669 L115.925,121.763 z"/></g><g transform="scale(1,1) translate(0,0)" fill="black" opacity="0"><path d="M73.763,113.951 L81.576,113.951 L77.669,106.138 L73.763,113.951 z"/></g><g transform="scale(1,1) translate(0,0)" fill="black" opacity="0"><path d="M73.763,137.388 L81.576,137.388 L77.669,145.201 L73.763,137.388 z"/></g><g fill="#9999FF" stroke="#9999FF" stroke-opacity="1" opacity="0" transform="scale(1,1) translate(0,0)"><path fill="none" stroke-width="1" stroke-dasharray="none" d="M164.008,5.669 L193.82,5.669 L193.82,109.159 M193.82,142.18 L193.82,245.669 L164.008,245.669 M149.669,260.008 L149.669,289.82 L94.18,289.82 M61.159,289.82 L5.669,289.82 L5.669,260.008 M-8.669,245.669 L-38.482,245.669 L-38.482,142.18 M-38.482,109.159 L-38.482,5.669 L-8.669,5.669 M5.669,-8.669 L5.669,-38.482 L61.159,-38.482 M94.18,-38.482 L149.669,-38.482 L149.669,-8.669"/><g><g stroke-dasharray="none"><path d="M163.008,4.669L165.008,4.669L165.008,6.669L163.008,6.669z" stroke-width="0" fill="none"/></g></g></g><g width="27.021263122558594" height="15.624999046325684" transform="rotate(270,186.008,139.18) scale(1,1) translate(186.008,139.18)" opacity="0"><text width="27.021263122558594" height="15.624999046325684" transform="scale(1,1) translate(0,0)" xml:space="preserve"><tspan xml:space="preserve" text-rendering="optimizeSpeed" font-size="13.88888888888889" font-weight="normal" font-style="normal" text-decoration="none" fill="#000" opacity="1" x="0" text-anchor="start" y="12.5" textLength="27.021263122558594" style="font-family: Arial, Helvetica Neue, Helvetica, sans-serif;">3.05</tspan></text></g><g width="27.021263122558594" height="15.624999046325684" transform="rotate(360,64.159,282.008) scale(1,1) translate(64.159,282.008)" opacity="0"><text width="27.021263122558594" height="15.624999046325684" transform="scale(1,1) translate(0,0)" xml:space="preserve"><tspan xml:space="preserve" text-rendering="optimizeSpeed" font-size="13.88888888888889" font-weight="normal" font-style="normal" text-decoration="none" fill="#000" opacity="1" x="0" text-anchor="start" y="12.5" textLength="27.021263122558594" style="font-family: Arial, Helvetica Neue, Helvetica, sans-serif;">1.83</tspan></text></g><g width="27.021263122558594" height="15.624999046325684" transform="rotate(270,-46.294,139.18) scale(1,1) translate(-46.294,139.18)" opacity="0"><text width="27.021263122558594" height="15.624999046325684" transform="scale(1,1) translate(0,0)" xml:space="preserve"><tspan xml:space="preserve" text-rendering="optimizeSpeed" font-size="13.88888888888889" font-weight="normal" font-style="normal" text-decoration="none" fill="#000" opacity="1" x="0" text-anchor="start" y="12.5" textLength="27.021263122558594" style="font-family: Arial, Helvetica Neue, Helvetica, sans-serif;">3.05</tspan></text></g><g width="27.021263122558594" height="15.624999046325684" transform="scale(1,1) translate(64.159,-46.294)" opacity="0"><text width="27.021263122558594" height="15.624999046325684" transform="scale(1,1) translate(0,0)" xml:space="preserve"><tspan xml:space="preserve" text-rendering="optimizeSpeed" font-size="13.88888888888889" font-weight="normal" font-style="normal" text-decoration="none" fill="#000" opacity="1" x="0" text-anchor="start" y="12.5" textLength="27.021263122558594" style="font-family: Arial, Helvetica Neue, Helvetica, sans-serif;">1.83</tspan></text></g><g width="27.021263122558594" height="15.624999046325684" transform="rotate(270,166.008,56.903) scale(1,1) translate(166.008,56.903)" opacity="0"><text width="27.021263122558594" height="15.624999046325684" transform="scale(1,1) translate(0,0)" xml:space="preserve"><tspan xml:space="preserve" text-rendering="optimizeSpeed" font-size="13.88888888888889" font-weight="normal" font-style="normal" text-decoration="none" fill="#000" opacity="1" x="0" text-anchor="start" y="12.5" textLength="27.021263122558594" style="font-family: Arial, Helvetica Neue, Helvetica, sans-serif;">0.96</tspan></text></g><g transform="scale(1,1) translate(0,0)" fill="black" opacity="0"><path d="M177.727,25.976 L169.914,25.976 L173.82,18.163 L177.727,25.976 z"/></g><g transform="scale(1,1) translate(0,0)" fill="black" opacity="0"><path d="M177.727,60.809 L169.914,60.809 L173.82,68.622 L177.727,60.809 z"/></g><g width="27.021263122558594" height="15.624999046325684" transform="rotate(270,166.008,212.903) scale(1,1) translate(166.008,212.903)" opacity="0"><text width="27.021263122558594" height="15.624999046325684" transform="scale(1,1) translate(0,0)" xml:space="preserve"><tspan xml:space="preserve" text-rendering="optimizeSpeed" font-size="13.88888888888889" font-weight="normal" font-style="normal" text-decoration="none" fill="#000" opacity="1" x="0" text-anchor="start" y="12.5" textLength="27.021263122558594" style="font-family: Arial, Helvetica Neue, Helvetica, sans-serif;">1.18</tspan></text></g><g transform="scale(1,1) translate(0,0)" fill="black" opacity="0"><path d="M177.727,181.976 L169.914,181.976 L173.82,174.163 L177.727,181.976 z"/></g><g transform="scale(1,1) translate(0,0)" fill="black" opacity="0"><path d="M177.727,216.809 L169.914,216.809 L173.82,224.622 L177.727,216.809 z"/></g><g width="27.021263122558594" height="15.624999046325684" transform="rotate(270,-26.294,166.66) scale(1,1) translate(-26.294,166.66)" opacity="0"><text width="27.021263122558594" height="15.624999046325684" transform="scale(1,1) translate(0,0)" xml:space="preserve"><tspan xml:space="preserve" text-rendering="optimizeSpeed" font-size="13.88888888888889" font-weight="normal" font-style="normal" text-decoration="none" fill="#000" opacity="1" x="0" text-anchor="start" y="12.5" textLength="27.021263122558594" style="font-family: Arial, Helvetica Neue, Helvetica, sans-serif;">2.35</tspan></text></g><g transform="scale(1,1) translate(0,0)" fill="black" opacity="0"><path d="M-22.388,170.566 L-14.576,170.566 L-18.482,178.379 L-22.388,170.566 z"/></g><g transform="scale(1,1) translate(0,0)" fill="black" opacity="0"><path d="M-22.388,135.733 L-14.576,135.733 L-18.482,127.92 L-22.388,135.733 z"/></g></g><g width="56" height="56" transform="rotate(180,452.76,522.463) scale(1,1) translate(424.76,494.463)"><g width="56" height="56"><g transform="scale(0.9545394830130707,0.9783194230475704) translate(0,0)"><g><g width="56.667" height="43.908" transform="scale(1,1) translate(0.5,12.833)"><g transform="scale(1,1) translate(0,0)" fill="#000000" stroke="#000000" stroke-opacity="1"><path d="M56.667,0 L56.667,0 L56.536,2.235 L56.311,4.344 L56.004,6.345 L55.627,8.25 L55.186,10.072 L54.687,11.816 L54.137,13.492 L53.538,15.102 L52.894,16.654 L52.209,18.149 L51.484,19.592 L50.721,20.984 L49.923,22.329 L49.09,23.629 L48.225,24.884 L47.328,26.097 L46.4,27.269 L45.441,28.4 L44.453,29.492 L43.437,30.546 L42.391,31.562 L41.318,32.54 L40.217,33.481 L39.088,34.385 L37.932,35.252 L36.748,36.083 L35.536,36.877 L34.296,37.633 L33.028,38.352 L31.732,39.033 L30.407,39.676 L29.053,40.279 L27.668,40.842 L26.252,41.364 L24.805,41.843 L23.324,42.278 L21.81,42.668 L20.259,43.01 L18.671,43.302 L17.044,43.541 L15.374,43.725 L13.66,43.849 L11.898,43.908 L10.083,43.898 L8.212,43.812 L6.276,43.641 L4.27,43.375 L2.182,43 L0,42.5 L0,42.5 L0,0.5" fill="none" stroke-width="1" stroke-dasharray="none"/><g><g stroke-dasharray="none"><path d="M55.667,-1L57.667,-1L57.667,1L55.667,1z" stroke-width="0" fill="none"/></g></g></g></g><g width="57" height="14" transform="scale(1,1) translate(0.667,0)"><g stroke="#BFBFBF" opacity="1" stroke-width="0" stroke-dasharray="none" width="57" height="14" transform="scale(1,1) translate(0,0)" fill="#FFFFFF" fill-opacity="1" stroke-opacity="1"><rect width="57" height="14"/></g></g></g></g></g><g fill="#0000FF" stroke="#9999FF" stroke-opacity="1" transform="scale(1,1) translate(0,0)"><path fill="none" stroke-width="0" stroke-dasharray="none" d="M0,0"/></g><g fill="#9999FF" stroke="#9999FF" stroke-opacity="1" opacity="0" transform="scale(1,1) translate(0,0)"><path fill="none" stroke-width="1" stroke-dasharray="none" d="M0,-4 L0,-33.812 L11.489,-33.812 M44.511,-33.812 L56,-33.812 L56,-4 M60,0 L89.812,0 L89.812,11.489 M89.812,44.511 L89.812,56 L60,56"/><g><g stroke-dasharray="none"><path d="M-1,-5L1,-5L1,-3L-1,-3z" stroke-width="0" fill="none"/></g></g></g><g width="27.021263122558594" height="15.624999046325684" transform="rotate(180,41.511,-26) scale(1,1) translate(41.511,-26)" opacity="0"><text width="27.021263122558594" height="15.624999046325684" transform="scale(1,1) translate(0,0)" xml:space="preserve"><tspan xml:space="preserve" text-rendering="optimizeSpeed" font-size="13.88888888888889" font-weight="normal" font-style="normal" text-decoration="none" fill="#000" opacity="1" x="0" text-anchor="start" y="12.5" textLength="27.021263122558594" style="font-family: Arial, Helvetica Neue, Helvetica, sans-serif;">0.71</tspan></text></g><g width="27.021263122558594" height="15.624999046325684" transform="rotate(90,97.625,14.489) scale(1,1) translate(97.625,14.489)" opacity="0"><text width="27.021263122558594" height="15.624999046325684" transform="scale(1,1) translate(0,0)" xml:space="preserve"><tspan xml:space="preserve" text-rendering="optimizeSpeed" font-size="13.88888888888889" font-weight="normal" font-style="normal" text-decoration="none" fill="#000" opacity="1" x="0" text-anchor="start" y="12.5" textLength="27.021263122558594" style="font-family: Arial, Helvetica Neue, Helvetica, sans-serif;">0.71</tspan></text></g></g><g width="56" height="56" transform="rotate(90,309.217,324.398) scale(1,1) translate(281.217,296.398)"><g width="56" height="56"><g transform="scale(0.954540013312784,0.9783197491540453) translate(0,0)"><g><g width="56.667" height="43.908" transform="scale(1,1) translate(0.5,12.833)"><g transform="scale(1,1) translate(0,0)" fill="#000000" stroke="#000000" stroke-opacity="1"><path d="M56.667,0 L56.667,0 L56.536,2.235 L56.311,4.344 L56.004,6.345 L55.627,8.25 L55.186,10.072 L54.687,11.816 L54.137,13.492 L53.538,15.102 L52.894,16.654 L52.209,18.149 L51.484,19.592 L50.721,20.984 L49.923,22.329 L49.09,23.629 L48.225,24.884 L47.328,26.097 L46.4,27.269 L45.441,28.4 L44.453,29.492 L43.437,30.546 L42.391,31.562 L41.318,32.54 L40.217,33.481 L39.088,34.385 L37.932,35.252 L36.748,36.083 L35.536,36.877 L34.296,37.633 L33.028,38.352 L31.732,39.033 L30.407,39.676 L29.053,40.279 L27.668,40.842 L26.252,41.364 L24.805,41.843 L23.324,42.278 L21.81,42.668 L20.259,43.01 L18.671,43.302 L17.044,43.541 L15.374,43.725 L13.66,43.849 L11.898,43.908 L10.083,43.898 L8.212,43.812 L6.276,43.641 L4.27,43.375 L2.182,43 L0,42.5 L0,42.5 L0,0.5" fill="none" stroke-width="1" stroke-dasharray="none"/><g><g stroke-dasharray="none"><path d="M55.667,-1L57.667,-1L57.667,1L55.667,1z" stroke-width="0" fill="none"/></g></g></g></g><g width="57" height="14" transform="scale(1,1) translate(0.667,0)"><g stroke="#BFBFBF" opacity="1" stroke-width="0" stroke-dasharray="none" width="57" height="14" transform="scale(1,1) translate(0,0)" fill="#FFFFFF" fill-opacity="1" stroke-opacity="1"><rect width="57" height="14"/></g></g></g></g></g><g fill="#9999FF" stroke="#9999FF" stroke-opacity="1" opacity="0" transform="scale(1,1) translate(0,0)"><path fill="none" stroke-width="1" stroke-dasharray="none" d="M0,0"/></g><g width="27.021263122558594" height="15.624999046325684" transform="rotate(180,41.511,-6) scale(1,1) translate(41.511,-6)" opacity="0"><text width="27.021263122558594" height="15.624999046325684" transform="scale(1,1) translate(0,0)" xml:space="preserve"><tspan xml:space="preserve" text-rendering="optimizeSpeed" font-size="13.88888888888889" font-weight="normal" font-style="normal" text-decoration="none" fill="#000" opacity="1" x="0" text-anchor="start" y="12.5" textLength="27.021263122558594" style="font-family: Arial, Helvetica Neue, Helvetica, sans-serif;">0.71</tspan></text></g><g transform="scale(1,1) translate(0,0)" fill="black" opacity="0"><path d="M10.583,-17.719 L10.583,-9.906 L2.771,-13.812 L10.583,-17.719 z"/></g><g transform="scale(1,1) translate(0,0)" fill="black" opacity="0"><path d="M45.417,-17.719 L45.417,-9.906 L53.229,-13.812 L45.417,-17.719 z"/></g><g width="27.021263122558594" height="15.624999046325684" transform="rotate(270,62,41.511) scale(1,1) translate(62,41.511)" opacity="0"><text width="27.021263122558594" height="15.624999046325684" transform="scale(1,1) translate(0,0)" xml:space="preserve"><tspan xml:space="preserve" text-rendering="optimizeSpeed" font-size="13.88888888888889" font-weight="normal" font-style="normal" text-decoration="none" fill="#000" opacity="1" x="0" text-anchor="start" y="12.5" textLength="27.021263122558594" style="font-family: Arial, Helvetica Neue, Helvetica, sans-serif;">0.71</tspan></text></g><g transform="scale(1,1) translate(0,0)" fill="black" opacity="0"><path d="M73.719,10.583 L65.906,10.583 L69.812,2.771 L73.719,10.583 z"/></g><g transform="scale(1,1) translate(0,0)" fill="black" opacity="0"><path d="M73.719,45.417 L65.906,45.417 L69.812,53.229 L73.719,45.417 z"/></g></g><g width="304.314" height="208.284" transform="scale(1,1) translate(330.177,543.424)"><g transform="scale(1,1) translate(0,0)" fill="#FFFFFF" stroke="#000000" stroke-opacity="1" fill-opacity="1"><path d="M304.314,0 L304.314,208.284 L0,208.284 L0,0 L304.314,0 z" stroke-width="11.339" stroke-dasharray="none"/></g><g fill="#0000FF" stroke="#9999FF" stroke-opacity="1" transform="scale(1,1) translate(0,0)"><path fill="none" stroke-width="0" stroke-dasharray="none" d="M0,0"/></g><g width="60.97748565673828" height="15.624999046325684" transform="scale(1,1) translate(121.668,96.329)"><text width="60.97748565673828" height="15.624999046325684" transform="scale(1,1) translate(0,0)" xml:space="preserve"><tspan xml:space="preserve" text-rendering="optimizeSpeed" font-size="13.88888888888889" font-weight="normal" font-style="normal" text-decoration="none" fill="#000" opacity="1" x="0" text-anchor="start" y="12.5" textLength="60.97748565673828" style="font-family: Arial, Helvetica Neue, Helvetica, sans-serif;">2.5 x 3.72</tspan></text></g><g transform="scale(1,1) translate(0,0)" fill="black" opacity="0"><path d="M117.762,100.236 L117.762,108.048 L109.95,104.142 L117.762,100.236 z"/></g><g transform="scale(1,1) translate(0,0)" fill="black" opacity="0"><path d="M186.552,100.236 L186.552,108.048 L194.365,104.142 L186.552,100.236 z"/></g><g transform="scale(1,1) translate(0,0)" fill="black" opacity="0"><path d="M148.251,92.423 L156.063,92.423 L152.157,84.611 L148.251,92.423 z"/></g><g transform="scale(1,1) translate(0,0)" fill="black" opacity="0"><path d="M148.251,115.861 L156.063,115.861 L152.157,123.673 L148.251,115.861 z"/></g><g fill="#9999FF" stroke="#9999FF" stroke-opacity="1" opacity="0" transform="scale(1,1) translate(0,0)"><path fill="none" stroke-width="1" stroke-dasharray="none" d="M312.983,5.669 L342.796,5.669 L342.796,91.492 M342.796,116.792 L342.796,202.615 L312.983,202.615 M298.645,216.953 L298.645,246.766 L168.668,246.766 M135.646,246.766 L5.669,246.766 L5.669,216.953 M-8.669,202.615 L-38.482,202.615 L-38.482,116.792 M-38.482,91.492 L-38.482,5.669 L-8.669,5.669 M5.669,-8.669 L5.669,-38.482 L135.646,-38.482 M168.668,-38.482 L298.645,-38.482 L298.645,-8.669"/><g><g stroke-dasharray="none"><path d="M311.983,4.669L313.983,4.669L313.983,6.669L311.983,6.669z" stroke-width="0" fill="none"/></g></g></g><g width="19.29993438720703" height="15.624999046325684" transform="rotate(270,334.983,113.792) scale(1,1) translate(334.983,113.792)" opacity="0"><text width="19.29993438720703" height="15.624999046325684" transform="scale(1,1) translate(0,0)" xml:space="preserve"><tspan xml:space="preserve" text-rendering="optimizeSpeed" font-size="13.88888888888889" font-weight="normal" font-style="normal" text-decoration="none" fill="#000" opacity="1" x="0" text-anchor="start" y="12.5" textLength="19.29993438720703" style="font-family: Arial, Helvetica Neue, Helvetica, sans-serif;">2.5</tspan></text></g><g width="27.021263122558594" height="15.624999046325684" transform="rotate(360,138.646,238.953) scale(1,1) translate(138.646,238.953)" opacity="0"><text width="27.021263122558594" height="15.624999046325684" transform="scale(1,1) translate(0,0)" xml:space="preserve"><tspan xml:space="preserve" text-rendering="optimizeSpeed" font-size="13.88888888888889" font-weight="normal" font-style="normal" text-decoration="none" fill="#000" opacity="1" x="0" text-anchor="start" y="12.5" textLength="27.021263122558594" style="font-family: Arial, Helvetica Neue, Helvetica, sans-serif;">3.72</tspan></text></g><g width="19.29993438720703" height="15.624999046325684" transform="rotate(270,-46.294,113.792) scale(1,1) translate(-46.294,113.792)" opacity="0"><text width="19.29993438720703" height="15.624999046325684" transform="scale(1,1) translate(0,0)" xml:space="preserve"><tspan xml:space="preserve" text-rendering="optimizeSpeed" font-size="13.88888888888889" font-weight="normal" font-style="normal" text-decoration="none" fill="#000" opacity="1" x="0" text-anchor="start" y="12.5" textLength="19.29993438720703" style="font-family: Arial, Helvetica Neue, Helvetica, sans-serif;">2.5</tspan></text></g><g width="27.021263122558594" height="15.624999046325684" transform="scale(1,1) translate(138.646,-46.294)" opacity="0"><text width="27.021263122558594" height="15.624999046325684" transform="scale(1,1) translate(0,0)" xml:space="preserve"><tspan xml:space="preserve" text-rendering="optimizeSpeed" font-size="13.88888888888889" font-weight="normal" font-style="normal" text-decoration="none" fill="#000" opacity="1" x="0" text-anchor="start" y="12.5" textLength="27.021263122558594" style="font-family: Arial, Helvetica Neue, Helvetica, sans-serif;">3.72</tspan></text></g><g width="27.021263122558594" height="15.624999046325684" transform="rotate(360,36.615,-26.294) scale(1,1) translate(36.615,-26.294)" opacity="0"><text width="27.021263122558594" height="15.624999046325684" transform="scale(1,1) translate(0,0)" xml:space="preserve"><tspan xml:space="preserve" text-rendering="optimizeSpeed" font-size="13.88888888888889" font-weight="normal" font-style="normal" text-decoration="none" fill="#000" opacity="1" x="0" text-anchor="start" y="12.5" textLength="27.021263122558594" style="font-family: Arial, Helvetica Neue, Helvetica, sans-serif;">1.13</tspan></text></g><g transform="scale(1,1) translate(0,0)" fill="black" opacity="0"><path d="M32.709,-22.388 L32.709,-14.576 L24.896,-18.482 L32.709,-22.388 z"/></g><g transform="scale(1,1) translate(0,0)" fill="black" opacity="0"><path d="M67.543,-22.388 L67.543,-14.576 L75.355,-18.482 L67.543,-22.388 z"/></g><g width="27.021263122558594" height="15.624999046325684" transform="rotate(360,110.273,-26.294) scale(1,1) translate(110.273,-26.294)" opacity="0"><text width="27.021263122558594" height="15.624999046325684" transform="scale(1,1) translate(0,0)" xml:space="preserve"><tspan xml:space="preserve" text-rendering="optimizeSpeed" font-size="13.88888888888889" font-weight="normal" font-style="normal" text-decoration="none" fill="#000" opacity="1" x="0" text-anchor="start" y="12.5" textLength="27.021263122558594" style="font-family: Arial, Helvetica Neue, Helvetica, sans-serif;">0.68</tspan></text></g><g transform="scale(1,1) translate(0,0)" fill="black" opacity="0"><path d="M141.2,-14.576 L141.2,-22.388 L149.013,-18.482 L141.2,-14.576 z"/></g><g transform="scale(1,1) translate(0,0)" fill="black" opacity="0"><path d="M106.367,-14.576 L106.367,-22.388 L98.554,-18.482 L106.367,-14.576 z"/></g><g width="27.021263122558594" height="15.624999046325684" transform="scale(1,1) translate(165.474,-26.294)" opacity="0"><text width="27.021263122558594" height="15.624999046325684" transform="scale(1,1) translate(0,0)" xml:space="preserve"><tspan xml:space="preserve" text-rendering="optimizeSpeed" font-size="13.88888888888889" font-weight="normal" font-style="normal" text-decoration="none" fill="#000" opacity="1" x="0" text-anchor="start" y="12.5" textLength="27.021263122558594" style="font-family: Arial, Helvetica Neue, Helvetica, sans-serif;">0.78</tspan></text></g><g transform="scale(1,1) translate(0,0)" fill="black" opacity="0"><path d="M161.568,-22.388 L161.568,-14.576 L153.756,-18.482 L161.568,-22.388 z"/></g><g transform="scale(1,1) translate(0,0)" fill="black" opacity="0"><path d="M196.402,-22.388 L196.402,-14.576 L204.214,-18.482 L196.402,-22.388 z"/></g></g><g width="51.181" height="14" transform="scale(1,1) translate(427.162,536.343)"><g stroke="#BFBFBF" stroke-opacity="1" stroke-width="0" stroke-dasharray="none" width="51.181" height="14" transform="scale(1,1) translate(0,0)" fill="#FFFFFF" fill-opacity="1"><rect width="51.181" height="14"/></g><g fill="#9999FF" stroke="#9999FF" stroke-opacity="1" opacity="0" transform="scale(1,1) translate(0,0)"><path fill="none" stroke-width="1" stroke-dasharray="none" d="M0,0"/></g><g width="27.021263122558594" height="15.624999046325684" transform="scale(1,1) translate(12.08,-20.625)" opacity="0"><text width="27.021263122558594" height="15.624999046325684" transform="scale(1,1) translate(0,0)" xml:space="preserve"><tspan xml:space="preserve" text-rendering="optimizeSpeed" font-size="13.88888888888889" font-weight="normal" font-style="normal" text-decoration="none" fill="#000" opacity="1" x="0" text-anchor="start" y="12.5" textLength="27.021263122558594" style="font-family: Arial, Helvetica Neue, Helvetica, sans-serif;">0.65</tspan></text></g><g transform="scale(1,1) translate(0,0)" fill="black" opacity="0"><path d="M8.174,-16.719 L8.174,-8.906 L0.361,-12.812 L8.174,-16.719 z"/></g><g transform="scale(1,1) translate(0,0)" fill="black" opacity="0"><path d="M43.007,-16.719 L43.007,-8.906 L50.82,-12.812 L43.007,-16.719 z"/></g><g width="27.021263122558594" height="15.624999046325684" transform="rotate(270,56.181,20.511) scale(1,1) translate(56.181,20.511)" opacity="0"><text width="27.021263122558594" height="15.624999046325684" transform="scale(1,1) translate(0,0)" xml:space="preserve"><tspan xml:space="preserve" text-rendering="optimizeSpeed" font-size="13.88888888888889" font-weight="normal" font-style="normal" text-decoration="none" fill="#000" opacity="1" x="0" text-anchor="start" y="12.5" textLength="27.021263122558594" style="font-family: Arial, Helvetica Neue, Helvetica, sans-serif;">0.18</tspan></text></g><g transform="scale(1,1) translate(0,0)" fill="black" opacity="0"><path d="M67.9,-10.417 L60.087,-10.417 L63.994,-18.229 L67.9,-10.417 z"/></g><g transform="scale(1,1) translate(0,0)" fill="black" opacity="0"><path d="M67.9,24.417 L60.087,24.417 L63.994,32.229 L67.9,24.417 z"/></g></g><g width="283.063" height="299.339" transform="scale(1,1) translate(46.294,485.026)"><g transform="scale(1,1) translate(0,0)" fill="#FFFFFF" stroke="#000000" stroke-opacity="1" fill-opacity="1"><path d="M0,0 L283.063,0 L283.063,299.339 L78.344,299.339 L78.344,171.663 L0,171.663 L0,0 z" stroke-width="11.339" stroke-dasharray="none"/></g><g fill="#0000FF" stroke="#9999FF" stroke-opacity="1" transform="scale(1,1) translate(0,0)"><path fill="none" stroke-width="0" stroke-dasharray="none" d="M0,0"/></g><g fill="#9999FF" stroke="#9999FF" stroke-opacity="1" opacity="0" transform="scale(1,1) translate(0,0)"><path fill="none" stroke-width="1" stroke-dasharray="none" d="M5.669,-8.669 L5.669,-38.482 L125.021,-38.482 M158.042,-38.482 L277.393,-38.482 L277.393,-8.669 M291.732,5.669 L321.544,5.669 L321.544,133.159 M321.544,166.18 L321.544,293.669 L291.732,293.669 M277.393,308.008 L277.393,337.82 L197.214,337.82 M164.193,337.82 L84.014,337.82 L84.014,308.008 M69.675,293.669 L39.863,293.669 L39.863,246.342 M39.863,213.321 L39.863,165.994 L69.675,165.994 M84.014,180.333 L84.014,210.145 L61.352,210.145 M28.331,210.145 L5.669,210.145 L5.669,180.333 M-8.669,165.994 L-38.482,165.994 L-38.482,102.342 M-38.482,69.321 L-38.482,5.669 L-8.669,5.669"/><g><g stroke-dasharray="none"><path d="M4.669,-9.669L6.669,-9.669L6.669,-7.669L4.669,-7.669z" stroke-width="0" fill="none"/></g></g></g><g width="27.021263122558594" height="15.624999046325684" transform="rotate(360,128.021,-46.294) scale(1,1) translate(128.021,-46.294)" opacity="0"><text width="27.021263122558594" height="15.624999046325684" transform="scale(1,1) translate(0,0)" xml:space="preserve"><tspan xml:space="preserve" text-rendering="optimizeSpeed" font-size="13.88888888888889" font-weight="normal" font-style="normal" text-decoration="none" fill="#000" opacity="1" x="0" text-anchor="start" y="12.5" textLength="27.021263122558594" style="font-family: Arial, Helvetica Neue, Helvetica, sans-serif;">3.45</tspan></text></g><g width="27.021263122558594" height="15.624999046325684" transform="rotate(270,313.732,163.18) scale(1,1) translate(313.732,163.18)" opacity="0"><text width="27.021263122558594" height="15.624999046325684" transform="scale(1,1) translate(0,0)" xml:space="preserve"><tspan xml:space="preserve" text-rendering="optimizeSpeed" font-size="13.88888888888889" font-weight="normal" font-style="normal" text-decoration="none" fill="#000" opacity="1" x="0" text-anchor="start" y="12.5" textLength="27.021263122558594" style="font-family: Arial, Helvetica Neue, Helvetica, sans-serif;">3.66</tspan></text></g><g width="27.021263122558594" height="15.624999046325684" transform="rotate(360,167.193,330.008) scale(1,1) translate(167.193,330.008)" opacity="0"><text width="27.021263122558594" height="15.624999046325684" transform="scale(1,1) translate(0,0)" xml:space="preserve"><tspan xml:space="preserve" text-rendering="optimizeSpeed" font-size="13.88888888888889" font-weight="normal" font-style="normal" text-decoration="none" fill="#000" opacity="1" x="0" text-anchor="start" y="12.5" textLength="27.021263122558594" style="font-family: Arial, Helvetica Neue, Helvetica, sans-serif;">2.46</tspan></text></g><g width="27.021263122558594" height="15.624999046325684" transform="rotate(270,32.05,243.342) scale(1,1) translate(32.05,243.342)" opacity="0"><text width="27.021263122558594" height="15.624999046325684" transform="scale(1,1) translate(0,0)" xml:space="preserve"><tspan xml:space="preserve" text-rendering="optimizeSpeed" font-size="13.88888888888889" font-weight="normal" font-style="normal" text-decoration="none" fill="#000" opacity="1" x="0" text-anchor="start" y="12.5" textLength="27.021263122558594" style="font-family: Arial, Helvetica Neue, Helvetica, sans-serif;">1.62</tspan></text></g><g width="27.021263122558594" height="15.624999046325684" transform="rotate(360,31.331,202.333) scale(1,1) translate(31.331,202.333)" opacity="0"><text width="27.021263122558594" height="15.624999046325684" transform="scale(1,1) translate(0,0)" xml:space="preserve"><tspan xml:space="preserve" text-rendering="optimizeSpeed" font-size="13.88888888888889" font-weight="normal" font-style="normal" text-decoration="none" fill="#000" opacity="1" x="0" text-anchor="start" y="12.5" textLength="27.021263122558594" style="font-family: Arial, Helvetica Neue, Helvetica, sans-serif;">0.99</tspan></text></g><g width="27.021263122558594" height="15.624999046325684" transform="rotate(270,-46.294,99.342) scale(1,1) translate(-46.294,99.342)" opacity="0"><text width="27.021263122558594" height="15.624999046325684" transform="scale(1,1) translate(0,0)" xml:space="preserve"><tspan xml:space="preserve" text-rendering="optimizeSpeed" font-size="13.88888888888889" font-weight="normal" font-style="normal" text-decoration="none" fill="#000" opacity="1" x="0" text-anchor="start" y="12.5" textLength="27.021263122558594" style="font-family: Arial, Helvetica Neue, Helvetica, sans-serif;">2.04</tspan></text></g><g width="19.29993438720703" height="15.624999046325684" transform="scale(1,1) translate(106.428,-26.294)" opacity="0"><text width="19.29993438720703" height="15.624999046325684" transform="scale(1,1) translate(0,0)" xml:space="preserve"><tspan xml:space="preserve" text-rendering="optimizeSpeed" font-size="13.88888888888889" font-weight="normal" font-style="normal" text-decoration="none" fill="#000" opacity="1" x="0" text-anchor="start" y="12.5" textLength="19.29993438720703" style="font-family: Arial, Helvetica Neue, Helvetica, sans-serif;">2.8</tspan></text></g><g transform="scale(1,1) translate(0,0)" fill="black" opacity="0"><path d="M102.522,-22.388 L102.522,-14.576 L94.71,-18.482 L102.522,-22.388 z"/></g><g transform="scale(1,1) translate(0,0)" fill="black" opacity="0"><path d="M129.635,-22.388 L129.635,-14.576 L137.447,-18.482 L129.635,-22.388 z"/></g><g width="27.021263122558594" height="15.624999046325684" transform="rotate(360,238.916,-26.294) scale(1,1) translate(238.916,-26.294)" opacity="0"><text width="27.021263122558594" height="15.624999046325684" transform="scale(1,1) translate(0,0)" xml:space="preserve"><tspan xml:space="preserve" text-rendering="optimizeSpeed" font-size="13.88888888888889" font-weight="normal" font-style="normal" text-decoration="none" fill="#000" opacity="1" x="0" text-anchor="start" y="12.5" textLength="27.021263122558594" style="font-family: Arial, Helvetica Neue, Helvetica, sans-serif;">0.64</tspan></text></g><g transform="scale(1,1) translate(0,0)" fill="black" opacity="0"><path d="M269.844,-14.576 L269.844,-22.388 L277.656,-18.482 L269.844,-14.576 z"/></g><g transform="scale(1,1) translate(0,0)" fill="black" opacity="0"><path d="M235.01,-14.576 L235.01,-22.388 L227.197,-18.482 L235.01,-14.576 z"/></g><g width="27.021263122558594" height="15.624999046325684" transform="rotate(270,100.352,196.318) scale(1,1) translate(100.352,196.318)" opacity="0"><text width="27.021263122558594" height="15.624999046325684" transform="scale(1,1) translate(0,0)" xml:space="preserve"><tspan xml:space="preserve" text-rendering="optimizeSpeed" font-size="13.88888888888889" font-weight="normal" font-style="normal" text-decoration="none" fill="#000" opacity="1" x="0" text-anchor="start" y="12.5" textLength="27.021263122558594" style="font-family: Arial, Helvetica Neue, Helvetica, sans-serif;">0.43</tspan></text></g><g transform="scale(1,1) translate(0,0)" fill="black" opacity="0"><path d="M104.259,200.224 L112.071,200.224 L108.165,208.037 L104.259,200.224 z"/></g><g transform="scale(1,1) translate(0,0)" fill="black" opacity="0"><path d="M104.259,165.391 L112.071,165.391 L108.165,157.578 L104.259,165.391 z"/></g></g><g width="51.181" height="14" transform="scale(1,1) translate(272.782,477.946)"><g stroke="#BFBFBF" stroke-opacity="1" stroke-width="0" stroke-dasharray="none" width="51.181" height="14" transform="scale(1,1) translate(0,0)" fill="#FFFFFF" fill-opacity="1"><rect width="51.181" height="14"/></g><g fill="#9999FF" stroke="#9999FF" stroke-opacity="1" opacity="0" transform="scale(1,1) translate(0,0)"><path fill="none" stroke-width="1" stroke-dasharray="none" d="M0,0"/></g><g width="27.021263122558594" height="15.624999046325684" transform="scale(1,1) translate(12.08,-20.625)" opacity="0"><text width="27.021263122558594" height="15.624999046325684" transform="scale(1,1) translate(0,0)" xml:space="preserve"><tspan xml:space="preserve" text-rendering="optimizeSpeed" font-size="13.88888888888889" font-weight="normal" font-style="normal" text-decoration="none" fill="#000" opacity="1" x="0" text-anchor="start" y="12.5" textLength="27.021263122558594" style="font-family: Arial, Helvetica Neue, Helvetica, sans-serif;">0.65</tspan></text></g><g transform="scale(1,1) translate(0,0)" fill="black" opacity="0"><path d="M8.174,-16.719 L8.174,-8.906 L0.361,-12.812 L8.174,-16.719 z"/></g><g transform="scale(1,1) translate(0,0)" fill="black" opacity="0"><path d="M43.007,-16.719 L43.007,-8.906 L50.82,-12.812 L43.007,-16.719 z"/></g><g width="27.021263122558594" height="15.624999046325684" transform="rotate(270,56.181,20.511) scale(1,1) translate(56.181,20.511)" opacity="0"><text width="27.021263122558594" height="15.624999046325684" transform="scale(1,1) translate(0,0)" xml:space="preserve"><tspan xml:space="preserve" text-rendering="optimizeSpeed" font-size="13.88888888888889" font-weight="normal" font-style="normal" text-decoration="none" fill="#000" opacity="1" x="0" text-anchor="start" y="12.5" textLength="27.021263122558594" style="font-family: Arial, Helvetica Neue, Helvetica, sans-serif;">0.18</tspan></text></g><g transform="scale(1,1) translate(0,0)" fill="black" opacity="0"><path d="M67.9,-10.417 L60.087,-10.417 L63.994,-18.229 L67.9,-10.417 z"/></g><g transform="scale(1,1) translate(0,0)" fill="black" opacity="0"><path d="M67.9,24.417 L60.087,24.417 L63.994,32.229 L67.9,24.417 z"/></g></g><g width="72" height="11.811" transform="scale(1,1) translate(158.68,286.085)"><g width="72" height="11.811"><g transform="scale(0.9350646571177722,0.874891153707958) translate(0,0)"><g><g width="75" height="12.5" transform="scale(1,1) translate(0.5,0.5)"><g stroke="#000000" opacity="1" stroke-width="1" stroke-dasharray="none" width="75" height="12.5" transform="scale(1,1) translate(0,0)" fill="#FFFFFF" fill-opacity="1" stroke-opacity="1"><rect width="75" height="12.5"/></g></g><g width="75" height="0" transform="scale(1,1) translate(0.5,6.667)"><g transform="scale(1,1) translate(0,0)" fill="#000000" stroke="#000000" stroke-opacity="1"><path d="M0,0 L75,0" fill="none" stroke-width="1" stroke-dasharray="none"/><g><g stroke-dasharray="none"><path d="M-1,-1L1,-1L1,1L-1,1z" stroke-width="0" fill="none"/></g></g></g></g></g></g></g><g fill="#9999FF" stroke="#9999FF" stroke-opacity="1" opacity="0" transform="scale(1,1) translate(0,0)"><path fill="none" stroke-width="1" stroke-dasharray="none" d="M0,0"/></g><g width="27.021263122558594" height="15.624999046325684" transform="scale(1,1) translate(22.489,-21.625)" opacity="0"><text width="27.021263122558594" height="15.624999046325684" transform="scale(1,1) translate(0,0)" xml:space="preserve"><tspan xml:space="preserve" text-rendering="optimizeSpeed" font-size="13.88888888888889" font-weight="normal" font-style="normal" text-decoration="none" fill="#000" opacity="1" x="0" text-anchor="start" y="12.5" textLength="27.021263122558594" style="font-family: Arial, Helvetica Neue, Helvetica, sans-serif;">0.91</tspan></text></g><g transform="scale(1,1) translate(0,0)" fill="black" opacity="0"><path d="M18.583,-17.719 L18.583,-9.906 L10.771,-13.812 L18.583,-17.719 z"/></g><g transform="scale(1,1) translate(0,0)" fill="black" opacity="0"><path d="M53.417,-17.719 L53.417,-9.906 L61.229,-13.812 L53.417,-17.719 z"/></g><g width="27.021263122558594" height="15.624999046325684" transform="rotate(270,78,19.416) scale(1,1) translate(78,19.416)" opacity="0"><text width="27.021263122558594" height="15.624999046325684" transform="scale(1,1) translate(0,0)" xml:space="preserve"><tspan xml:space="preserve" text-rendering="optimizeSpeed" font-size="13.88888888888889" font-weight="normal" font-style="normal" text-decoration="none" fill="#000" opacity="1" x="0" text-anchor="start" y="12.5" textLength="27.021263122558594" style="font-family: Arial, Helvetica Neue, Helvetica, sans-serif;">0.15</tspan></text></g><g transform="scale(1,1) translate(0,0)" fill="black" opacity="0"><path d="M89.719,-11.511 L81.906,-11.511 L85.812,-19.324 L89.719,-11.511 z"/></g><g transform="scale(1,1) translate(0,0)" fill="black" opacity="0"><path d="M89.719,23.322 L81.906,23.322 L85.812,31.135 L89.719,23.322 z"/></g></g><g width="72" height="12" transform="scale(1,1) translate(539.981,537.424)"><g width="72" height="12"><g transform="scale(0.9350646571177722,0.8888894121672855) translate(0,0)"><g><g width="75" height="12.5" transform="scale(1,1) translate(0.5,0.5)"><g stroke="#000000" opacity="1" stroke-width="1" stroke-dasharray="none" width="75" height="12.5" transform="scale(1,1) translate(0,0)" fill="#FFFFFF" fill-opacity="1" stroke-opacity="1"><rect width="75" height="12.5"/></g></g><g width="75" height="0" transform="scale(1,1) translate(0.5,6.667)"><g transform="scale(1,1) translate(0,0)" fill="#000000" stroke="#000000" stroke-opacity="1"><path d="M0,0 L75,0" fill="none" stroke-width="1" stroke-dasharray="none"/><g><g stroke-dasharray="none"><path d="M-1,-1L1,-1L1,1L-1,1z" stroke-width="0" fill="none"/></g></g></g></g></g></g></g><g fill="#9999FF" stroke="#9999FF" stroke-opacity="1" opacity="0" transform="scale(1,1) translate(0,0)"><path fill="none" stroke-width="1" stroke-dasharray="none" d="M0,0"/></g><g width="27.021263122558594" height="15.624999046325684" transform="scale(1,1) translate(22.489,-21.625)" opacity="0"><text width="27.021263122558594" height="15.624999046325684" transform="scale(1,1) translate(0,0)" xml:space="preserve"><tspan xml:space="preserve" text-rendering="optimizeSpeed" font-size="13.88888888888889" font-weight="normal" font-style="normal" text-decoration="none" fill="#000" opacity="1" x="0" text-anchor="start" y="12.5" textLength="27.021263122558594" style="font-family: Arial, Helvetica Neue, Helvetica, sans-serif;">0.91</tspan></text></g><g transform="scale(1,1) translate(0,0)" fill="black" opacity="0"><path d="M18.583,-17.719 L18.583,-9.906 L10.771,-13.812 L18.583,-17.719 z"/></g><g transform="scale(1,1) translate(0,0)" fill="black" opacity="0"><path d="M53.417,-17.719 L53.417,-9.906 L61.229,-13.812 L53.417,-17.719 z"/></g><g width="27.021263122558594" height="15.624999046325684" transform="rotate(270,78,19.511) scale(1,1) translate(78,19.511)" opacity="0"><text width="27.021263122558594" height="15.624999046325684" transform="scale(1,1) translate(0,0)" xml:space="preserve"><tspan xml:space="preserve" text-rendering="optimizeSpeed" font-size="13.88888888888889" font-weight="normal" font-style="normal" text-decoration="none" fill="#000" opacity="1" x="0" text-anchor="start" y="12.5" textLength="27.021263122558594" style="font-family: Arial, Helvetica Neue, Helvetica, sans-serif;">0.15</tspan></text></g><g transform="scale(1,1) translate(0,0)" fill="black" opacity="0"><path d="M89.719,-11.417 L81.906,-11.417 L85.812,-19.229 L89.719,-11.417 z"/></g><g transform="scale(1,1) translate(0,0)" fill="black" opacity="0"><path d="M89.719,23.417 L81.906,23.417 L85.812,31.229 L89.719,23.417 z"/></g></g><g width="72" height="12" transform="rotate(90,485.516,409.201) scale(1,1) translate(449.516,403.201)"><g width="72" height="12"><g transform="scale(0.9350646571177722,0.8888894121672855) translate(0,0)"><g><g width="75" height="12.5" transform="scale(1,1) translate(0.5,0.5)"><g stroke="#000000" opacity="1" stroke-width="1" stroke-dasharray="none" width="75" height="12.5" transform="scale(1,1) translate(0,0)" fill="#FFFFFF" fill-opacity="1" stroke-opacity="1"><rect width="75" height="12.5"/></g></g><g width="75" height="0" transform="scale(1,1) translate(0.5,6.667)"><g transform="scale(1,1) translate(0,0)" fill="#000000" stroke="#000000" stroke-opacity="1"><path d="M0,0 L75,0" fill="none" stroke-width="1" stroke-dasharray="none"/><g><g stroke-dasharray="none"><path d="M-1,-1L1,-1L1,1L-1,1z" stroke-width="0" fill="none"/></g></g></g></g></g></g></g><g fill="#9999FF" stroke="#9999FF" stroke-opacity="1" opacity="0" transform="scale(1,1) translate(0,0)"><path fill="none" stroke-width="1" stroke-dasharray="none" d="M0,0"/></g><g width="27.021263122558594" height="15.624999046325684" transform="rotate(180,49.511,-6) scale(1,1) translate(49.511,-6)" opacity="0"><text width="27.021263122558594" height="15.624999046325684" transform="scale(1,1) translate(0,0)" xml:space="preserve"><tspan xml:space="preserve" text-rendering="optimizeSpeed" font-size="13.88888888888889" font-weight="normal" font-style="normal" text-decoration="none" fill="#000" opacity="1" x="0" text-anchor="start" y="12.5" textLength="27.021263122558594" style="font-family: Arial, Helvetica Neue, Helvetica, sans-serif;">0.91</tspan></text></g><g transform="scale(1,1) translate(0,0)" fill="black" opacity="0"><path d="M18.583,-17.719 L18.583,-9.906 L10.771,-13.812 L18.583,-17.719 z"/></g><g transform="scale(1,1) translate(0,0)" fill="black" opacity="0"><path d="M53.417,-17.719 L53.417,-9.906 L61.229,-13.812 L53.417,-17.719 z"/></g><g width="27.021263122558594" height="15.624999046325684" transform="rotate(270,78,19.511) scale(1,1) translate(78,19.511)" opacity="0"><text width="27.021263122558594" height="15.624999046325684" transform="scale(1,1) translate(0,0)" xml:space="preserve"><tspan xml:space="preserve" text-rendering="optimizeSpeed" font-size="13.88888888888889" font-weight="normal" font-style="normal" text-decoration="none" fill="#000" opacity="1" x="0" text-anchor="start" y="12.5" textLength="27.021263122558594" style="font-family: Arial, Helvetica Neue, Helvetica, sans-serif;">0.15</tspan></text></g><g transform="scale(1,1) translate(0,0)" fill="black" opacity="0"><path d="M89.719,-11.417 L81.906,-11.417 L85.812,-19.229 L89.719,-11.417 z"/></g><g transform="scale(1,1) translate(0,0)" fill="black" opacity="0"><path d="M89.719,23.417 L81.906,23.417 L85.812,31.229 L89.719,23.417 z"/></g></g><g width="118.11" height="12" transform="rotate(90,46.294,572.881) scale(1,1) translate(-12.761,566.881)"><g width="118.11" height="12"><g transform="scale(1.5338987157443769,0.8888894121672855) translate(0,0)"><g><g width="75" height="12.5" transform="scale(1,1) translate(0.5,0.5)"><g stroke="#000000" opacity="1" stroke-width="1" stroke-dasharray="none" width="75" height="12.5" transform="scale(1,1) translate(0,0)" fill="#FFFFFF" fill-opacity="1" stroke-opacity="1"><rect width="75" height="12.5"/></g></g><g width="75" height="0" transform="scale(1,1) translate(0.5,6.667)"><g transform="scale(1,1) translate(0,0)" fill="#000000" stroke="#000000" stroke-opacity="1"><path d="M0,0 L75,0" fill="none" stroke-width="1" stroke-dasharray="none"/><g><g stroke-dasharray="none"><path d="M-1,-1L1,-1L1,1L-1,1z" stroke-width="0" fill="none"/></g></g></g></g></g></g></g><g fill="#9999FF" stroke="#9999FF" stroke-opacity="1" opacity="0" transform="scale(1,1) translate(0,0)"><path fill="none" stroke-width="1" stroke-dasharray="none" d="M0,0"/></g><g width="19.29993438720703" height="15.624999046325684" transform="rotate(180,68.705,-6) scale(1,1) translate(68.705,-6)" opacity="0"><text width="19.29993438720703" height="15.624999046325684" transform="scale(1,1) translate(0,0)" xml:space="preserve"><tspan xml:space="preserve" text-rendering="optimizeSpeed" font-size="13.88888888888889" font-weight="normal" font-style="normal" text-decoration="none" fill="#000" opacity="1" x="0" text-anchor="start" y="12.5" textLength="19.29993438720703" style="font-family: Arial, Helvetica Neue, Helvetica, sans-serif;">1.5</tspan></text></g><g transform="scale(1,1) translate(0,0)" fill="black" opacity="0"><path d="M45.499,-17.719 L45.499,-9.906 L37.686,-13.812 L45.499,-17.719 z"/></g><g transform="scale(1,1) translate(0,0)" fill="black" opacity="0"><path d="M72.611,-17.719 L72.611,-9.906 L80.424,-13.812 L72.611,-17.719 z"/></g><g width="27.021263122558594" height="15.624999046325684" transform="rotate(270,124.11,19.511) scale(1,1) translate(124.11,19.511)" opacity="0"><text width="27.021263122558594" height="15.624999046325684" transform="scale(1,1) translate(0,0)" xml:space="preserve"><tspan xml:space="preserve" text-rendering="optimizeSpeed" font-size="13.88888888888889" font-weight="normal" font-style="normal" text-decoration="none" fill="#000" opacity="1" x="0" text-anchor="start" y="12.5" textLength="27.021263122558594" style="font-family: Arial, Helvetica Neue, Helvetica, sans-serif;">0.15</tspan></text></g><g transform="scale(1,1) translate(0,0)" fill="black" opacity="0"><path d="M135.829,-11.417 L128.016,-11.417 L131.923,-19.229 L135.829,-11.417 z"/></g><g transform="scale(1,1) translate(0,0)" fill="black" opacity="0"><path d="M135.829,23.417 L128.016,23.417 L131.923,31.229 L135.829,23.417 z"/></g></g><g width="86.614" height="68" transform="rotate(270,151.279,726.569) scale(1,1) translate(107.972,692.569)"><g width="86.614" height="68"><g transform="scale(0.6883263152355948,0.9760717448664192) translate(0,0)"><g><g width="122.833" height="14.667" transform="scale(1,1) translate(0.5,0)"><g stroke="#BFBFBF" opacity="1" stroke-width="0" stroke-dasharray="none" width="122.833" height="14.667" transform="scale(1,1) translate(0,0)" fill="#FFFFFF" fill-opacity="1" stroke-opacity="1"><rect width="122.833" height="14.667"/></g></g><g width="61.333" height="54.5" transform="scale(1,1) translate(0.5,14.667)"><g transform="scale(1,1) translate(0,0)" fill="#000000" stroke="#000000" stroke-opacity="1"><path d="M0,0 L0,54.5 L0,54.5 L2.111,54.355 L4.167,54.148 L6.172,53.883 L8.128,53.563 L10.038,53.192 L11.905,52.772 L13.731,52.306 L15.517,51.795 L17.265,51.242 L18.977,50.647 L20.653,50.013 L22.295,49.34 L23.904,48.63 L25.48,47.883 L27.025,47.1 L28.539,46.283 L30.022,45.431 L31.475,44.546 L32.899,43.627 L34.294,42.676 L35.659,41.692 L36.996,40.675 L38.305,39.627 L39.585,38.547 L40.836,37.434 L42.06,36.29 L43.255,35.114 L44.421,33.906 L45.559,32.666 L46.668,31.393 L47.747,30.087 L48.798,28.748 L49.818,27.375 L50.807,25.968 L51.766,24.526 L52.693,23.048 L53.588,21.534 L54.449,19.982 L55.276,18.392 L56.068,16.762 L56.823,15.091 L57.54,13.378 L58.218,11.619 L58.854,9.815 L59.447,7.961 L59.995,6.056 L60.494,4.097 L60.941,2.079 L61.333,0 L61.333,0" fill="none" stroke-width="1" stroke-dasharray="none"/><g><g stroke-dasharray="none"><path d="M-1,-1L1,-1L1,1L-1,1z" stroke-width="0" fill="none"/></g></g></g></g><g width="61.333" height="54.5" transform="scale(1,1) translate(62,14.667)"><g transform="scale(1,1) translate(0,0)" fill="#000000" stroke="#000000" stroke-opacity="1"><path d="M61.333,0 L61.333,54.5 L61.333,54.5 L59.223,54.354 L57.168,54.146 L55.164,53.88 L53.209,53.559 L51.299,53.187 L49.433,52.767 L47.608,52.3 L45.822,51.789 L44.075,51.235 L42.363,50.64 L40.687,50.005 L39.046,49.332 L37.437,48.621 L35.861,47.874 L34.316,47.091 L32.803,46.273 L31.32,45.422 L29.867,44.536 L28.443,43.617 L27.049,42.666 L25.683,41.681 L24.346,40.665 L23.038,39.617 L21.758,38.536 L20.506,37.424 L19.283,36.28 L18.088,35.104 L16.921,33.896 L15.783,32.655 L14.674,31.383 L13.595,30.077 L12.544,28.738 L11.524,27.365 L10.534,25.958 L9.575,24.517 L8.648,23.039 L7.753,21.525 L6.891,19.974 L6.064,18.385 L5.272,16.755 L4.516,15.085 L3.798,13.371 L3.12,11.614 L2.483,9.81 L1.889,7.957 L1.341,6.053 L0.842,4.095 L0.393,2.078 L0,0 L0,0" fill="none" stroke-width="1" stroke-dasharray="none"/><g><g stroke-dasharray="none"><path d="M60.333,-1L62.333,-1L62.333,1L60.333,1z" stroke-width="0" fill="none"/></g></g></g></g></g></g></g><g fill="#9999FF" stroke="#9999FF" stroke-opacity="1" opacity="0" transform="scale(1,1) translate(0,0)"><path fill="none" stroke-width="1" stroke-dasharray="none" d="M0,0"/></g><g width="19.29993438720703" height="15.624999046325684" transform="scale(1,1) translate(33.657,-21.625)" opacity="0"><text width="19.29993438720703" height="15.624999046325684" transform="scale(1,1) translate(0,0)" xml:space="preserve"><tspan xml:space="preserve" text-rendering="optimizeSpeed" font-size="13.88888888888889" font-weight="normal" font-style="normal" text-decoration="none" fill="#000" opacity="1" x="0" text-anchor="start" y="12.5" textLength="19.29993438720703" style="font-family: Arial, Helvetica Neue, Helvetica, sans-serif;">1.1</tspan></text></g><g transform="scale(1,1) translate(0,0)" fill="black" opacity="0"><path d="M29.751,-17.719 L29.751,-9.906 L21.938,-13.812 L29.751,-17.719 z"/></g><g transform="scale(1,1) translate(0,0)" fill="black" opacity="0"><path d="M56.863,-17.719 L56.863,-9.906 L64.676,-13.812 L56.863,-17.719 z"/></g><g width="27.021263122558594" height="15.624999046325684" transform="rotate(90,108.239,20.489) scale(1,1) translate(108.239,20.489)" opacity="0"><text width="27.021263122558594" height="15.624999046325684" transform="scale(1,1) translate(0,0)" xml:space="preserve"><tspan xml:space="preserve" text-rendering="optimizeSpeed" font-size="13.88888888888889" font-weight="normal" font-style="normal" text-decoration="none" fill="#000" opacity="1" x="0" text-anchor="start" y="12.5" textLength="27.021263122558594" style="font-family: Arial, Helvetica Neue, Helvetica, sans-serif;">0.86</tspan></text></g><g transform="scale(1,1) translate(0,0)" fill="black" opacity="0"><path d="M104.333,16.583 L96.52,16.583 L100.427,8.771 L104.333,16.583 z"/></g><g transform="scale(1,1) translate(0,0)" fill="black" opacity="0"><path d="M104.333,51.417 L96.52,51.417 L100.427,59.229 L104.333,51.417 z"/></g></g></g></svg>